<?xml version="1.0" encoding="utf-8"?>
<!-- Generator: Adobe Illustrator 18.1.1, SVG Export Plug-In . SVG Version: 6.00 Build 0)  -->
<svg version="1.1" id="Layer_1" xmlns="http://www.w3.org/2000/svg" xmlns:xlink="http://www.w3.org/1999/xlink" x="0px" y="0px"
	 viewBox="0 0 357.4 101.8" enable-background="new 0 0 357.4 101.8" xml:space="preserve">
<path fill="#FFFFFF" d="M0,2h16.6v64.7h23.1v14.3H0V2z"/>
<path fill="#FFFFFF" d="M43.6,62.8c-2.7-6-3.9-13-3.9-21.3s1.3-15.2,4-21.3C49.3,7.6,61.2,0,78.4,0C89,0,98,3.2,104.4,9.1
	c6.2,5.5,9.5,13.3,9.9,22.4H96.7c-0.2-5.3-2-9.3-5.2-12.2c-3.4-2.9-7.7-4.6-13.7-4.6c-9,0-14.9,3.9-17.9,10.6
	c-1.8,4.1-2.6,9.1-2.6,16.2c0,7.1,0.7,12.2,2.6,16.4c3.1,6.9,9.3,10.5,17.9,10.5c5.9,0,10.6-1.7,14-4.7c3-2.7,4.9-6.6,5.2-11.8h17.6
	c-0.2,9.1-3.8,16.7-9.6,22c-6.4,5.9-15.8,9.2-26.4,9.2C61.4,83.1,49.4,75.7,43.6,62.8z"/>
<path fill="#FFFFFF" d="M165.8,81.1L136,44v37.1h-16.6V2H136v30.5L162,2h19.6l-30.9,35.6l35.6,43.5H165.8z"/>
<path fill="#FFFFFF" d="M190.4,88.4h47.3v13.4h-47.3V88.4z"/>
<path fill="#FFFFFF" d="M271.6,16.6H236V2h59.8l-35.2,79.1h-18.4L271.6,16.6z"/>
<path fill="#FFFFFF" d="M357.4,59c0,3.9-0.7,7.3-2,10.2c-4,8.8-13,13.9-28.3,13.9c-13.8,0-24.2-4.6-28.2-14c-2-4.6-3-10.1-3-17h15.7
	c0,4.4,0.6,7.7,1.8,10.4c2,4.6,6.4,7.1,13.1,7.1c6.4,0,11.1-2.1,13-6.5c0.8-1.7,1.1-3.7,1.1-5.7c0-2.1-0.4-3.9-1.2-5.5
	c-2.4-4.9-8.2-6.4-15.3-6.4h-3V33.8h3c7.1,0,12.3-1.8,14.3-6.2c0.7-1.3,0.9-2.6,0.9-4.4c0-1.7-0.2-3.4-0.9-4.9
	c-1.9-3.9-5.9-5.8-11.9-5.8c-6.4,0-10.5,2.2-12.4,6.5c-0.8,1.9-1.2,3.9-1.3,6.5h-15.3c0-4.6,0.7-8.3,2.1-11.6
	C303.6,4.5,314.3,0,327.3,0c13.8,0,22.8,5,26.4,13c1.2,2.9,1.8,5.8,1.8,9c0,3-0.6,5.4-1.6,7.6c-1.9,4.6-5.7,8-12.1,9.9
	c6.9,1.7,11.5,5.2,13.8,10.3C356.8,52.4,357.4,55.4,357.4,59z"/>
</svg>
